<mxfile host="app.diagrams.net" modified="2024-02-23T16:36:23.769Z" agent="Mozilla/5.0 (Windows NT 10.0; Win64; x64; rv:122.0) Gecko/20100101 Firefox/122.0" etag="p7hjrBCSe86grrKGPtqz" version="23.1.2" type="github">
  <diagram id="C5RBs43oDa-KdzZeNtuy" name="Page-1">
    <mxGraphModel dx="1434" dy="698" grid="1" gridSize="10" guides="1" tooltips="1" connect="1" arrows="1" fold="1" page="1" pageScale="1" pageWidth="827" pageHeight="1169" math="0" shadow="0">
      <root>
        <mxCell id="WIyWlLk6GJQsqaUBKTNV-0" />
        <mxCell id="WIyWlLk6GJQsqaUBKTNV-1" parent="WIyWlLk6GJQsqaUBKTNV-0" />
        <mxCell id="KiOhNjsRn19e5gCm-0zP-0" value="&lt;div&gt;UpdateService&lt;/div&gt;" style="text;html=1;align=center;verticalAlign=middle;resizable=0;points=[];autosize=1;strokeColor=none;fillColor=none;" vertex="1" parent="WIyWlLk6GJQsqaUBKTNV-1">
          <mxGeometry x="30" y="20" width="100" height="30" as="geometry" />
        </mxCell>
        <mxCell id="KiOhNjsRn19e5gCm-0zP-1" value="&lt;div&gt;Update&lt;/div&gt;" style="text;html=1;align=center;verticalAlign=middle;resizable=0;points=[];autosize=1;strokeColor=none;fillColor=none;" vertex="1" parent="WIyWlLk6GJQsqaUBKTNV-1">
          <mxGeometry x="30" y="50" width="60" height="30" as="geometry" />
        </mxCell>
        <mxCell id="KiOhNjsRn19e5gCm-0zP-18" value="" style="edgeStyle=orthogonalEdgeStyle;rounded=0;orthogonalLoop=1;jettySize=auto;html=1;" edge="1" parent="WIyWlLk6GJQsqaUBKTNV-1" source="KiOhNjsRn19e5gCm-0zP-3" target="KiOhNjsRn19e5gCm-0zP-17">
          <mxGeometry relative="1" as="geometry" />
        </mxCell>
        <mxCell id="KiOhNjsRn19e5gCm-0zP-3" value="Set PcuName as&amp;nbsp; current update" style="rounded=1;whiteSpace=wrap;html=1;fontSize=12;glass=0;strokeWidth=1;shadow=0;" vertex="1" parent="WIyWlLk6GJQsqaUBKTNV-1">
          <mxGeometry x="414" y="110" width="120" height="40" as="geometry" />
        </mxCell>
        <mxCell id="KiOhNjsRn19e5gCm-0zP-20" style="edgeStyle=orthogonalEdgeStyle;rounded=0;orthogonalLoop=1;jettySize=auto;html=1;entryX=1;entryY=0.5;entryDx=0;entryDy=0;" edge="1" parent="WIyWlLk6GJQsqaUBKTNV-1" source="KiOhNjsRn19e5gCm-0zP-6" target="KiOhNjsRn19e5gCm-0zP-13">
          <mxGeometry relative="1" as="geometry">
            <mxPoint x="580" y="250" as="targetPoint" />
          </mxGeometry>
        </mxCell>
        <mxCell id="KiOhNjsRn19e5gCm-0zP-21" value="No" style="edgeLabel;html=1;align=center;verticalAlign=middle;resizable=0;points=[];" vertex="1" connectable="0" parent="KiOhNjsRn19e5gCm-0zP-20">
          <mxGeometry x="0.12" y="-5" relative="1" as="geometry">
            <mxPoint x="29" y="-15" as="offset" />
          </mxGeometry>
        </mxCell>
        <mxCell id="KiOhNjsRn19e5gCm-0zP-6" value="Check if host is reachable" style="rhombus;whiteSpace=wrap;html=1;shadow=0;fontFamily=Helvetica;fontSize=12;align=center;strokeWidth=1;spacing=6;spacingTop=-4;" vertex="1" parent="WIyWlLk6GJQsqaUBKTNV-1">
          <mxGeometry x="645" y="200" width="110" height="100" as="geometry" />
        </mxCell>
        <mxCell id="KiOhNjsRn19e5gCm-0zP-7" style="edgeStyle=orthogonalEdgeStyle;rounded=0;orthogonalLoop=1;jettySize=auto;html=1;entryX=0;entryY=0.5;entryDx=0;entryDy=0;exitX=1;exitY=0.5;exitDx=0;exitDy=0;exitPerimeter=0;" edge="1" parent="WIyWlLk6GJQsqaUBKTNV-1" source="KiOhNjsRn19e5gCm-0zP-16" target="KiOhNjsRn19e5gCm-0zP-3">
          <mxGeometry relative="1" as="geometry">
            <mxPoint x="315" y="130" as="sourcePoint" />
          </mxGeometry>
        </mxCell>
        <mxCell id="KiOhNjsRn19e5gCm-0zP-10" value="Yes" style="edgeStyle=orthogonalEdgeStyle;rounded=0;html=1;jettySize=auto;orthogonalLoop=1;fontSize=11;endArrow=block;endFill=0;endSize=8;strokeWidth=1;shadow=0;labelBackgroundColor=none;entryX=0.5;entryY=0;entryDx=0;entryDy=0;exitX=0.5;exitY=1;exitDx=0;exitDy=0;" edge="1" parent="WIyWlLk6GJQsqaUBKTNV-1" source="KiOhNjsRn19e5gCm-0zP-6" target="KiOhNjsRn19e5gCm-0zP-11">
          <mxGeometry x="-0.5" y="-15" relative="1" as="geometry">
            <mxPoint as="offset" />
            <mxPoint x="265" y="440" as="sourcePoint" />
            <mxPoint x="265" y="510" as="targetPoint" />
          </mxGeometry>
        </mxCell>
        <mxCell id="KiOhNjsRn19e5gCm-0zP-25" style="edgeStyle=orthogonalEdgeStyle;rounded=0;orthogonalLoop=1;jettySize=auto;html=1;entryX=1;entryY=0.5;entryDx=0;entryDy=0;" edge="1" parent="WIyWlLk6GJQsqaUBKTNV-1" source="KiOhNjsRn19e5gCm-0zP-11" target="KiOhNjsRn19e5gCm-0zP-24">
          <mxGeometry relative="1" as="geometry" />
        </mxCell>
        <mxCell id="KiOhNjsRn19e5gCm-0zP-11" value="Connect to ftp" style="rounded=1;whiteSpace=wrap;html=1;fontSize=12;glass=0;strokeWidth=1;shadow=0;" vertex="1" parent="WIyWlLk6GJQsqaUBKTNV-1">
          <mxGeometry x="640" y="360" width="120" height="40" as="geometry" />
        </mxCell>
        <mxCell id="KiOhNjsRn19e5gCm-0zP-13" value="Throw IOException" style="rounded=1;whiteSpace=wrap;html=1;fontSize=12;glass=0;strokeWidth=1;shadow=0;" vertex="1" parent="WIyWlLk6GJQsqaUBKTNV-1">
          <mxGeometry x="414" y="230" width="120" height="40" as="geometry" />
        </mxCell>
        <mxCell id="KiOhNjsRn19e5gCm-0zP-16" value="Start" style="strokeWidth=2;html=1;shape=mxgraph.flowchart.terminator;whiteSpace=wrap;" vertex="1" parent="WIyWlLk6GJQsqaUBKTNV-1">
          <mxGeometry x="170" y="100" width="100" height="60" as="geometry" />
        </mxCell>
        <mxCell id="KiOhNjsRn19e5gCm-0zP-19" style="edgeStyle=orthogonalEdgeStyle;rounded=0;orthogonalLoop=1;jettySize=auto;html=1;entryX=0.5;entryY=0;entryDx=0;entryDy=0;" edge="1" parent="WIyWlLk6GJQsqaUBKTNV-1" source="KiOhNjsRn19e5gCm-0zP-17" target="KiOhNjsRn19e5gCm-0zP-6">
          <mxGeometry relative="1" as="geometry">
            <mxPoint x="700" y="190" as="targetPoint" />
          </mxGeometry>
        </mxCell>
        <mxCell id="KiOhNjsRn19e5gCm-0zP-17" value="Reset update percentage" style="rounded=1;whiteSpace=wrap;html=1;fontSize=12;glass=0;strokeWidth=1;shadow=0;" vertex="1" parent="WIyWlLk6GJQsqaUBKTNV-1">
          <mxGeometry x="640" y="110" width="120" height="40" as="geometry" />
        </mxCell>
        <mxCell id="KiOhNjsRn19e5gCm-0zP-22" value="End" style="strokeWidth=2;html=1;shape=mxgraph.flowchart.terminator;whiteSpace=wrap;" vertex="1" parent="WIyWlLk6GJQsqaUBKTNV-1">
          <mxGeometry x="170" y="220" width="100" height="60" as="geometry" />
        </mxCell>
        <mxCell id="KiOhNjsRn19e5gCm-0zP-23" style="edgeStyle=orthogonalEdgeStyle;rounded=0;orthogonalLoop=1;jettySize=auto;html=1;entryX=1;entryY=0.5;entryDx=0;entryDy=0;entryPerimeter=0;" edge="1" parent="WIyWlLk6GJQsqaUBKTNV-1" source="KiOhNjsRn19e5gCm-0zP-13" target="KiOhNjsRn19e5gCm-0zP-22">
          <mxGeometry relative="1" as="geometry" />
        </mxCell>
        <mxCell id="KiOhNjsRn19e5gCm-0zP-26" style="edgeStyle=orthogonalEdgeStyle;rounded=0;orthogonalLoop=1;jettySize=auto;html=1;exitX=0;exitY=0.5;exitDx=0;exitDy=0;entryX=1;entryY=0.5;entryDx=0;entryDy=0;" edge="1" parent="WIyWlLk6GJQsqaUBKTNV-1" source="KiOhNjsRn19e5gCm-0zP-24" target="KiOhNjsRn19e5gCm-0zP-28">
          <mxGeometry relative="1" as="geometry">
            <mxPoint x="410" y="380" as="targetPoint" />
          </mxGeometry>
        </mxCell>
        <mxCell id="KiOhNjsRn19e5gCm-0zP-27" value="No" style="edgeLabel;html=1;align=center;verticalAlign=middle;resizable=0;points=[];" vertex="1" connectable="0" parent="KiOhNjsRn19e5gCm-0zP-26">
          <mxGeometry x="-0.0647" y="-1" relative="1" as="geometry">
            <mxPoint y="-19" as="offset" />
          </mxGeometry>
        </mxCell>
        <mxCell id="KiOhNjsRn19e5gCm-0zP-31" style="edgeStyle=orthogonalEdgeStyle;rounded=0;orthogonalLoop=1;jettySize=auto;html=1;entryX=0.5;entryY=0;entryDx=0;entryDy=0;entryPerimeter=0;" edge="1" parent="WIyWlLk6GJQsqaUBKTNV-1" source="KiOhNjsRn19e5gCm-0zP-24" target="KiOhNjsRn19e5gCm-0zP-34">
          <mxGeometry relative="1" as="geometry">
            <mxPoint x="535" y="490" as="targetPoint" />
          </mxGeometry>
        </mxCell>
        <mxCell id="KiOhNjsRn19e5gCm-0zP-33" value="&lt;div&gt;Yes&lt;/div&gt;" style="edgeLabel;html=1;align=center;verticalAlign=middle;resizable=0;points=[];" vertex="1" connectable="0" parent="KiOhNjsRn19e5gCm-0zP-31">
          <mxGeometry x="0.1054" y="4" relative="1" as="geometry">
            <mxPoint x="21" y="-13" as="offset" />
          </mxGeometry>
        </mxCell>
        <mxCell id="KiOhNjsRn19e5gCm-0zP-24" value="&lt;div&gt;Check if ftp connection is &lt;br&gt;&lt;/div&gt;&lt;div&gt;established&lt;br&gt;&lt;/div&gt;" style="rhombus;whiteSpace=wrap;html=1;shadow=0;fontFamily=Helvetica;fontSize=12;align=center;strokeWidth=1;spacing=6;spacingTop=-4;" vertex="1" parent="WIyWlLk6GJQsqaUBKTNV-1">
          <mxGeometry x="480" y="330" width="110" height="100" as="geometry" />
        </mxCell>
        <mxCell id="KiOhNjsRn19e5gCm-0zP-28" value="Throw IOException" style="rounded=1;whiteSpace=wrap;html=1;fontSize=12;glass=0;strokeWidth=1;shadow=0;" vertex="1" parent="WIyWlLk6GJQsqaUBKTNV-1">
          <mxGeometry x="310" y="360" width="120" height="40" as="geometry" />
        </mxCell>
        <mxCell id="KiOhNjsRn19e5gCm-0zP-29" value="End" style="strokeWidth=2;html=1;shape=mxgraph.flowchart.terminator;whiteSpace=wrap;" vertex="1" parent="WIyWlLk6GJQsqaUBKTNV-1">
          <mxGeometry x="170" y="350" width="100" height="60" as="geometry" />
        </mxCell>
        <mxCell id="KiOhNjsRn19e5gCm-0zP-30" style="edgeStyle=orthogonalEdgeStyle;rounded=0;orthogonalLoop=1;jettySize=auto;html=1;entryX=1;entryY=0.5;entryDx=0;entryDy=0;entryPerimeter=0;" edge="1" parent="WIyWlLk6GJQsqaUBKTNV-1" source="KiOhNjsRn19e5gCm-0zP-28" target="KiOhNjsRn19e5gCm-0zP-29">
          <mxGeometry relative="1" as="geometry" />
        </mxCell>
        <mxCell id="KiOhNjsRn19e5gCm-0zP-34" value="&lt;div&gt;Any elements&lt;/div&gt;&lt;div&gt;in local File to&amp;nbsp;&lt;/div&gt;&lt;div&gt;Update&lt;br&gt;&lt;/div&gt;" style="strokeWidth=2;html=1;shape=mxgraph.flowchart.decision;whiteSpace=wrap;" vertex="1" parent="WIyWlLk6GJQsqaUBKTNV-1">
          <mxGeometry x="477.5" y="500" width="115" height="120" as="geometry" />
        </mxCell>
      </root>
    </mxGraphModel>
  </diagram>
</mxfile>
